<?xml version="1.0" encoding="UTF-8" standalone="no"?>
<!DOCTYPE svg PUBLIC "-//W3C//DTD SVG 1.1//EN" "http://www.w3.org/Graphics/SVG/1.1/DTD/svg11.dtd">
<svg width="100%" height="100%" viewBox="0 0 320 105" version="1.1" xmlns="http://www.w3.org/2000/svg" xmlns:xlink="http://www.w3.org/1999/xlink" xml:space="preserve" xmlns:serif="http://www.serif.com/" style="fill-rule:evenodd;clip-rule:evenodd;stroke-linejoin:round;stroke-miterlimit:2;">
    <g transform="matrix(1,0,0,1,-173.988,-70.5997)">
        <g transform="matrix(1,0,0,0.707884,0,0)">
            <g transform="matrix(1,0,0,1.41266,367.73,245.254)">
                <g transform="matrix(0.742717,0,0,0.742717,-193.742,-103.05)">
                    <path d="M274.093,106.928L277.943,106.928L277.943,116.039L288.401,116.039L288.401,106.928L292.253,106.928L292.253,128.846L288.401,128.846L288.401,119.608L277.943,119.608L277.943,128.846L274.093,128.846L274.093,106.928Z" style="fill:rgb(0,166,188);fill-rule:nonzero;"/>
                </g>
                <g transform="matrix(0.742717,0,0,0.742717,-193.742,-103.05)">
                    <path d="M304.148,106.928L320.399,106.928L320.399,110.372L307.999,110.372L307.999,116.07L318.99,116.07L318.99,119.515L307.999,119.515L307.999,125.401L320.556,125.401L320.556,128.846L304.148,128.846L304.148,106.928Z" style="fill:rgb(0,166,188);fill-rule:nonzero;"/>
                </g>
                <g transform="matrix(0.742717,0,0,0.742717,-193.742,-103.05)">
                    <path d="M344.663,120.141L340.875,111.374L337.117,120.141L344.663,120.141ZM339.152,106.771L342.722,106.771L352.365,128.846L348.295,128.846L346.072,123.554L335.708,123.554L333.454,128.846L329.509,128.846L339.152,106.771Z" style="fill:rgb(0,166,188);fill-rule:nonzero;"/>
                </g>
                <g transform="matrix(0.742717,0,0,0.742717,-193.742,-103.05)">
                    <path d="M362.381,106.928L366.231,106.928L366.231,125.339L377.754,125.339L377.754,128.846L362.381,128.846L362.381,106.928Z" style="fill:rgb(0,166,188);fill-rule:nonzero;"/>
                </g>
                <g transform="matrix(0.742717,0,0,0.742717,-193.742,-103.05)">
                    <path d="M390.272,110.497L383.322,110.497L383.322,106.928L401.106,106.928L401.106,110.497L394.155,110.497L394.155,128.846L390.272,128.846L390.272,110.497Z" style="fill:rgb(0,166,188);fill-rule:nonzero;"/>
                </g>
                <g transform="matrix(0.742717,0,0,0.742717,-193.742,-103.05)">
                    <path d="M411.437,106.928L415.287,106.928L415.287,116.039L425.745,116.039L425.745,106.928L429.597,106.928L429.597,128.846L425.745,128.846L425.745,119.608L415.287,119.608L415.287,128.846L411.437,128.846L411.437,106.928Z" style="fill:rgb(0,166,188);fill-rule:nonzero;"/>
                </g>
                <g transform="matrix(0.742717,0,0,0.742717,-193.742,-103.05)">
                    <path d="M131.011,70.472C131.011,64.496 130.795,52.182 130.578,47.574C130.218,40.589 129.858,39.941 129.858,39.941C131.011,39.582 131.947,39.293 133.099,39.293C136.339,39.293 139.507,40.95 139.507,43.757C139.507,52.111 139.147,58.735 139.147,64.28C139.147,73.568 139.147,78.681 139.291,85.666L152.469,85.305C157.149,85.162 160.317,84.658 162.118,83.721C162.189,84.513 162.189,85.162 162.189,85.738C162.189,90.346 160.605,90.778 155.349,90.778L130.218,90.417C130.218,90.417 131.011,88.402 131.011,70.472Z" style="fill:rgb(36,57,72);fill-rule:nonzero;"/>
                </g>
                <g transform="matrix(0.742717,0,0,0.742717,-193.742,-103.05)">
                    <path d="M178.099,86.385C180.547,86.385 184.507,84.153 184.507,81.416C184.507,78.537 184.723,74.72 184.723,71.048C181.771,71.552 173.274,72.848 173.274,80.481C173.274,84.801 175.579,86.385 178.099,86.385ZM184.723,68.167L184.723,67.52C184.723,61.471 183.355,58.087 177.811,58.087C174.282,58.087 170.538,60.031 167.874,62.408L167.586,62.12C168.738,57.799 174.57,53.334 180.907,53.334C191.132,53.334 192.5,59.455 192.5,66.007C192.5,69.824 192.284,74.648 192.284,78.609L192.284,79.473C192.284,82.281 192.356,87.465 195.884,87.465C197.324,87.465 198.621,86.457 198.621,86.457L198.909,86.673C198.909,86.673 197.108,91.138 190.916,91.138C187.963,91.138 184.867,89.914 184.795,86.097L184.507,85.954C182.851,88.978 179.251,91.498 174.714,91.498C168.666,91.498 165.138,87.105 165.138,81.849C165.138,71.408 176.874,68.312 184.723,68.167Z" style="fill:rgb(36,57,72);fill-rule:nonzero;"/>
                </g>
                <g transform="matrix(0.742717,0,0,0.742717,-193.742,-103.05)">
                    <path d="M216.474,70.472C216.474,66.152 216.186,51.031 216.041,47.574C215.682,40.589 215.322,40.013 215.322,40.013L228.57,40.013C239.588,40.013 244.483,39.293 244.483,39.293C244.052,42.822 243.836,45.27 238.651,45.27C230.442,45.27 224.97,44.118 224.97,44.118C224.97,47.142 224.898,54.991 224.826,62.263L235.915,62.263C238.867,62.263 240.163,61.543 240.163,61.543C240.02,64.927 239.588,66.872 235.843,66.872C232.099,66.872 224.754,66.44 224.754,66.44L224.754,73.208C224.754,77.241 225.042,81.633 225.042,86.242C225.042,90.129 222.882,91.138 220.361,91.138C218.85,91.138 217.338,90.706 215.538,90.417C215.538,90.417 216.474,88.402 216.474,70.472Z" style="fill:rgb(36,57,72);fill-rule:nonzero;"/>
                </g>
                <g transform="matrix(0.742717,0,0,0.742717,-193.742,-103.05)">
                    <path d="M254.922,86.385C257.37,86.385 261.331,84.153 261.331,81.416C261.331,78.537 261.547,74.72 261.547,71.048C258.595,71.552 250.098,72.848 250.098,80.481C250.098,84.801 252.402,86.385 254.922,86.385ZM261.547,68.167L261.547,67.52C261.547,61.471 260.178,58.087 254.634,58.087C251.105,58.087 247.361,60.031 244.697,62.408L244.409,62.12C245.562,57.799 251.394,53.334 257.73,53.334C267.955,53.334 269.323,59.455 269.323,66.007C269.323,69.824 269.107,74.648 269.107,78.609L269.107,79.473C269.107,82.281 269.18,87.465 272.708,87.465C274.147,87.465 275.444,86.457 275.444,86.457L275.732,86.673C275.732,86.673 273.932,91.138 267.739,91.138C264.787,91.138 261.69,89.914 261.618,86.097L261.331,85.954C259.674,88.978 256.074,91.498 251.538,91.498C245.489,91.498 241.961,87.105 241.961,81.849C241.961,71.408 253.698,68.312 261.547,68.167Z" style="fill:rgb(36,57,72);fill-rule:nonzero;"/>
                </g>
                <g transform="matrix(0.742717,0,0,0.742717,-193.742,-103.05)">
                    <path d="M280.192,72.776C280.192,69.176 280.049,65.431 279.904,61.975C279.545,54.991 278.465,54.342 278.465,54.342C279.688,53.983 280.841,53.695 281.993,53.695C285.305,53.695 287.609,55.422 287.609,57.655C287.609,58.591 287.321,59.455 287.321,59.455L287.609,59.527C288.978,55.999 294.162,53.695 298.771,53.695C305.539,53.695 308.274,56.287 308.563,59.455L308.851,59.527C310.436,55.999 315.62,53.695 320.229,53.695C329.733,53.695 330.742,58.663 330.742,63.704C330.742,68.959 330.454,73.712 330.454,79.905C330.454,83.145 330.525,87.465 334.054,87.465C335.494,87.465 336.79,86.457 336.79,86.457L337.078,86.673C337.078,86.673 335.278,91.138 329.086,91.138C325.917,91.138 322.605,89.625 322.605,85.305C322.605,79.113 322.821,74.792 322.821,67.448C322.821,62.696 322.677,58.087 316.7,58.087C310.147,58.087 309.067,67.304 309.067,70.76C309.067,70.904 309.211,83.217 309.211,83.649C309.211,88.761 307.555,89.841 306.402,91.138C303.811,90.778 301.146,90.562 301.146,85.593C301.146,79.401 301.362,74.792 301.362,67.448C301.362,62.696 301.219,58.087 295.026,58.087C292.002,58.087 287.825,61.471 287.825,68.024C287.825,74.504 288.113,79.401 288.113,86.242C288.113,90.129 286.098,91.138 283.577,91.138C282.064,91.138 280.192,90.778 278.465,90.417C278.969,90.202 280.192,85.666 280.192,72.776Z" style="fill:rgb(36,57,72);fill-rule:nonzero;"/>
                </g>
                <g transform="matrix(0.742717,0,0,0.742717,-193.742,-103.05)">
                    <path d="M340.384,42.749C340.384,40.085 342.616,37.853 345.209,37.853C347.873,37.853 350.105,40.085 350.105,42.749C350.105,45.342 347.873,47.574 345.209,47.574C342.616,47.574 340.384,45.342 340.384,42.749ZM341.536,72.993C341.536,56.575 339.88,54.342 339.809,54.342C341.032,53.983 342.185,53.695 343.337,53.695C346.577,53.695 349.457,55.422 349.457,58.303C349.457,65.936 349.097,74.577 349.097,79.905C349.097,83.145 349.169,87.465 352.697,87.465C354.138,87.465 355.434,86.457 355.434,86.457L355.722,86.673C355.722,86.673 353.921,91.138 347.729,91.138C344.561,91.138 341.248,89.625 341.248,85.305C341.248,81.201 341.536,77.025 341.536,72.993Z" style="fill:rgb(36,57,72);fill-rule:nonzero;"/>
                </g>
                <g transform="matrix(0.742717,0,0,0.742717,-193.742,-103.05)">
                    <path d="M360.327,61.832C360.327,55.063 360.184,48.582 359.968,43.974C359.607,37.349 358.672,35.909 358.672,35.909L358.888,35.621C363.712,35.693 368.176,36.485 368.176,40.95C368.176,48.222 367.889,55.783 367.889,63.416C367.889,69.824 367.96,76.376 368.176,82.713C368.248,85.162 368.896,87.465 371.417,87.465C372.856,87.465 374.152,86.457 374.152,86.457L374.44,86.673C374.44,86.673 372.641,91.138 366.448,91.138C363.28,91.138 359.968,89.698 359.968,84.874C359.968,78.968 360.327,70.184 360.327,61.832Z" style="fill:rgb(36,57,72);fill-rule:nonzero;"/>
                </g>
                <g transform="matrix(0.742717,0,0,0.742717,-193.742,-103.05)">
                    <path d="M378.038,42.749C378.038,40.085 380.271,37.853 382.863,37.853C385.527,37.853 387.76,40.085 387.76,42.749C387.76,45.342 385.527,47.574 382.863,47.574C380.271,47.574 378.038,45.342 378.038,42.749ZM379.19,72.993C379.19,56.575 377.534,54.342 377.463,54.342C378.687,53.983 379.839,53.695 380.991,53.695C384.231,53.695 387.111,55.422 387.111,58.303C387.111,65.936 386.751,74.577 386.751,79.905C386.751,83.145 386.823,87.465 390.352,87.465C391.792,87.465 393.088,86.457 393.088,86.457L393.376,86.673C393.376,86.673 391.575,91.138 385.383,91.138C382.215,91.138 378.902,89.625 378.902,85.305C378.902,81.201 379.19,77.025 379.19,72.993Z" style="fill:rgb(36,57,72);fill-rule:nonzero;"/>
                </g>
                <g transform="matrix(0.742717,0,0,0.742717,-193.742,-103.05)">
                    <path d="M408.855,86.385C411.304,86.385 415.264,84.153 415.264,81.416C415.264,78.537 415.479,74.72 415.479,71.048C412.527,71.552 404.03,72.848 404.03,80.481C404.03,84.801 406.335,86.385 408.855,86.385ZM415.479,68.167L415.479,67.52C415.479,61.471 414.111,58.087 408.567,58.087C405.039,58.087 401.295,60.031 398.63,62.408L398.342,62.12C399.494,57.799 405.327,53.334 411.663,53.334C421.889,53.334 423.257,59.455 423.257,66.007C423.257,69.824 423.04,74.648 423.04,78.609L423.04,79.473C423.04,82.281 423.112,87.465 426.641,87.465C428.081,87.465 429.377,86.457 429.377,86.457L429.665,86.673C429.665,86.673 427.864,91.138 421.672,91.138C418.72,91.138 415.624,89.914 415.552,86.097L415.264,85.954C413.607,88.978 410.007,91.498 405.471,91.498C399.422,91.498 395.894,87.105 395.894,81.849C395.894,71.408 407.631,68.312 415.479,68.167Z" style="fill:rgb(36,57,72);fill-rule:nonzero;"/>
                </g>
                <g transform="matrix(0.742717,0,0,0.742717,-193.742,-103.05)">
                    <path d="M43.293,100.906C48.482,94.374 52.941,86.624 54.503,82.646L66.705,51.573C66.963,50.916 67.229,50.289 67.498,49.675C66.538,49.586 65.476,49.638 64.378,49.992C61.255,50.997 58.68,54.03 56.726,59.008L47.135,83.429C45.835,86.741 41.892,93.033 37.145,98.174C34.609,100.92 31.382,103.836 28.122,105.225L36.109,108.36C38.249,106.694 40.694,104.179 43.293,100.906Z" style="fill:url(#_Linear1);"/>
                </g>
                <g transform="matrix(0.742717,0,0,0.742717,-193.742,-103.05)">
                    <path d="M88.457,114.875L101.018,82.891C97.147,83.028 88.571,84.029 86.187,90.103L76.607,114.496C75.301,117.823 71.178,124.076 66.112,129.111C63.475,131.73 60.113,134.49 56.656,135.804L69.888,141C72.125,139.584 81.398,132.851 88.457,114.875Z" style="fill:url(#_Linear2);"/>
                </g>
                <g transform="matrix(0.742717,0,0,0.742717,-193.742,-103.05)">
                    <path d="M51.229,43.173C52.166,45.559 54.151,49.306 56.706,53.332C57.989,51.322 59.446,49.775 61.078,48.722C59.944,46.859 59.084,45.198 58.597,43.957L49.007,19.535C47.052,14.557 44.477,11.523 41.354,10.519C40.254,10.166 39.193,10.113 38.234,10.202C38.503,10.815 38.769,11.443 39.027,12.1L51.229,43.173Z" style="fill:url(#_Linear3);"/>
                </g>
                <g transform="matrix(0.742717,0,0,0.742717,-193.742,-103.05)">
                    <path d="M51.213,108.053C56.742,100.669 61.578,91.966 63.322,87.527L76.897,52.959C79.078,47.404 81.541,43.242 84.254,40.482C83.22,40.03 81.452,39.547 79.368,40.163C75.61,41.271 72.162,45.582 69.395,52.628L57.192,83.703C55.554,87.874 50.919,95.952 45.556,102.703C41.648,107.623 38.163,110.884 35.129,112.469L44.188,116.025C46.166,114.248 48.509,111.665 51.213,108.053Z" style="fill:url(#_Linear4);"/>
                </g>
                <g transform="matrix(0.742717,0,0,0.742717,-193.742,-103.05)">
                    <path d="M60.662,114.994C66.314,107.3 71.288,98.249 73.099,93.64L87.174,57.798C88.649,54.041 90.237,50.898 91.928,48.363L95.192,40.05C94.259,39.646 92.716,39.247 90.85,39.773C88.027,40.569 83.808,43.696 79.732,54.074L66.158,88.64C63.687,94.936 51.98,115.708 42.464,121.065L51.839,124.746C54.141,122.956 57.088,119.857 60.662,114.994Z" style="fill:url(#_Linear5);"/>
                </g>
                <g transform="matrix(0.742717,0,0,0.742717,-193.742,-103.05)">
                    <path d="M64.195,127.182C68.824,122.582 72.855,116.615 74.076,113.502L83.655,89.109C85.011,85.656 87.779,83.526 90.812,82.214L105.734,44.219C104.835,43.832 103.373,43.464 101.585,43.959C98.696,44.76 94.352,48.008 90.063,58.932L75.987,94.775C73.419,101.312 61.35,122.954 51.7,128.537L59.1,131.443C61.075,130.117 62.881,128.488 64.195,127.182Z" style="fill:url(#_Linear6);"/>
                </g>
                <g transform="matrix(0.742717,0,0,0.742717,-193.742,-103.05)">
                    <path d="M42.41,48.053C43.853,51.727 47.415,58.318 51.733,64.666L54.341,58.024C54.591,57.387 54.856,56.788 55.127,56.206C52.051,51.512 49.63,47.005 48.54,44.228L36.337,13.155C36.183,12.761 36.025,12.376 35.865,12C35.709,11.631 35.551,11.273 35.392,10.921C35.391,10.919 35.391,10.918 35.39,10.916C32.787,5.17 29.676,1.643 26.317,0.676C24.248,0.081 22.501,0.561 21.478,1.008C24.191,3.769 26.654,7.931 28.836,13.487L42.41,48.053Z" style="fill:url(#_Linear7);"/>
                </g>
                <g transform="matrix(0.742717,0,0,0.742717,-193.742,-103.05)">
                    <path d="M45.07,75.522C45.614,76.261 46.138,76.947 46.652,77.606L50.393,68.079C45.422,61.041 41.209,53.329 39.574,49.167L26,14.601C21.904,4.17 17.662,1.058 14.825,0.284C12.997,-0.215 11.468,0.186 10.542,0.582L13.804,8.89C15.496,11.424 17.084,14.568 18.559,18.325L32.634,54.167C34.443,58.776 39.418,67.826 45.07,75.522Z" style="fill:url(#_Linear8);"/>
                </g>
                <g transform="matrix(0.742717,0,0,0.742717,-193.742,-103.05)">
                    <path d="M41.537,87.709C41.609,87.781 41.698,87.863 41.773,87.936C43.165,85.77 44.21,83.825 44.751,82.446L45.343,80.939C44.443,79.835 43.522,78.654 42.57,77.359C36.761,69.452 31.627,60.093 29.745,55.301L15.67,19.459C11.381,8.536 7.037,5.288 4.147,4.487C2.361,3.99 0.898,4.359 0,4.746L14.921,42.744C17.953,44.057 20.721,46.184 22.077,49.635L31.656,74.029C32.878,77.142 36.908,83.11 41.537,87.709Z" style="fill:url(#_Linear9);"/>
                </g>
                <g transform="matrix(0.742717,0,0,0.742717,-193.742,-103.05)">
                    <path d="M32.605,99.037C33.469,98.251 34.357,97.37 35.263,96.388C37.085,94.415 38.775,92.277 40.228,90.223C40.024,90.028 39.816,89.832 39.621,89.637C34.554,84.604 30.432,78.35 29.126,75.023L19.546,50.629C17.155,44.54 8.581,43.547 4.713,43.415C5.902,46.443 9.032,54.414 17.274,75.403C22.397,88.448 28.684,95.568 32.605,99.037Z" style="fill:url(#_Linear10);"/>
                </g>
            </g>
        </g>
    </g>
    <defs>
        <linearGradient id="_Linear1" x1="0" y1="0" x2="1" y2="0" gradientUnits="userSpaceOnUse" gradientTransform="matrix(-24.1604,61.5247,-61.5247,-24.1604,59.8908,46.6872)"><stop offset="0" style="stop-color:rgb(247,147,33);stop-opacity:1"/><stop offset="1" style="stop-color:rgb(237,33,39);stop-opacity:1"/></linearGradient>
        <linearGradient id="_Linear2" x1="0" y1="0" x2="1" y2="0" gradientUnits="userSpaceOnUse" gradientTransform="matrix(23.9296,-60.9369,60.9369,23.9296,66.8725,139.815)"><stop offset="0" style="stop-color:rgb(20,169,157);stop-opacity:1"/><stop offset="1" style="stop-color:rgb(42,170,226);stop-opacity:1"/></linearGradient>
        <linearGradient id="_Linear3" x1="0" y1="0" x2="1" y2="0" gradientUnits="userSpaceOnUse" gradientTransform="matrix(17.1418,43.6517,-43.6517,17.1418,41.5776,8.88877)"><stop offset="0" style="stop-color:rgb(247,147,33);stop-opacity:1"/><stop offset="1" style="stop-color:rgb(237,33,39);stop-opacity:1"/></linearGradient>
        <linearGradient id="_Linear4" x1="0" y1="0" x2="1" y2="0" gradientUnits="userSpaceOnUse" gradientTransform="matrix(-31.0572,79.0873,-79.0873,-31.0572,75.2214,36.929)"><stop offset="0" style="stop-color:rgb(158,30,96);stop-opacity:1"/><stop offset="1" style="stop-color:rgb(237,33,39);stop-opacity:1"/></linearGradient>
        <linearGradient id="_Linear5" x1="0" y1="0" x2="1" y2="0" gradientUnits="userSpaceOnUse" gradientTransform="matrix(34.6098,-88.1341,88.1341,34.6098,51.5246,124.623)"><stop offset="0" style="stop-color:rgb(46,54,145);stop-opacity:1"/><stop offset="1" style="stop-color:rgb(158,30,96);stop-opacity:1"/></linearGradient>
        <linearGradient id="_Linear6" x1="0" y1="0" x2="1" y2="0" gradientUnits="userSpaceOnUse" gradientTransform="matrix(35.9079,-91.4396,91.4396,35.9079,60.7638,132.096)"><stop offset="0" style="stop-color:rgb(46,54,145);stop-opacity:1"/><stop offset="1" style="stop-color:rgb(41,171,226);stop-opacity:1"/></linearGradient>
        <linearGradient id="_Linear7" x1="0" y1="0" x2="1" y2="0" gradientUnits="userSpaceOnUse" gradientTransform="matrix(25.7025,65.4514,-65.4514,25.7025,26.6631,-1.03392)"><stop offset="0" style="stop-color:rgb(158,30,96);stop-opacity:1"/><stop offset="1" style="stop-color:rgb(237,33,39);stop-opacity:1"/></linearGradient>
        <linearGradient id="_Linear8" x1="0" y1="0" x2="1" y2="0" gradientUnits="userSpaceOnUse" gradientTransform="matrix(-31.0313,-79.0214,79.0214,-31.0313,47.3537,77.3301)"><stop offset="0" style="stop-color:rgb(46,54,145);stop-opacity:1"/><stop offset="1" style="stop-color:rgb(158,30,96);stop-opacity:1"/></linearGradient>
        <linearGradient id="_Linear9" x1="0" y1="0" x2="1" y2="0" gradientUnits="userSpaceOnUse" gradientTransform="matrix(-33.8861,-86.291,86.291,-33.8861,40.5662,88.4102)"><stop offset="0" style="stop-color:rgb(46,54,145);stop-opacity:1"/><stop offset="1" style="stop-color:rgb(41,171,226);stop-opacity:1"/></linearGradient>
        <linearGradient id="_Linear10" x1="0" y1="0" x2="1" y2="0" gradientUnits="userSpaceOnUse" gradientTransform="matrix(-22.6505,-57.6795,57.6795,-22.6505,34.7862,98.1797)"><stop offset="0" style="stop-color:rgb(20,169,157);stop-opacity:1"/><stop offset="1" style="stop-color:rgb(42,170,226);stop-opacity:1"/></linearGradient>
    </defs>
</svg>
